<svg width="24" height="24" viewBox="0 0 24 24" fill="none" xmlns="http://www.w3.org/2000/svg">
<path d="M13.464 7.10743L17.7497 11.3931C17.8295 11.4728 17.8929 11.5674 17.9361 11.6715C17.9793 11.7756 18.0015 11.8873 18.0015 12C18.0015 12.1127 17.9793 12.2244 17.9361 12.3285C17.8929 12.4326 17.8295 12.5272 17.7497 12.6069L13.464 16.8926C13.3031 17.0535 13.0848 17.1439 12.8571 17.1439C12.6295 17.1439 12.4112 17.0535 12.2503 16.8926C12.0893 16.7316 11.9989 16.5133 11.9989 16.2857C11.9989 16.0581 12.0893 15.8398 12.2503 15.6789L15.0737 12.8571L6.85714 12.8571C6.62982 12.8571 6.4118 12.7668 6.25105 12.6061C6.09031 12.4453 6 12.2273 6 12C6 11.7727 6.09031 11.5547 6.25105 11.3939C6.4118 11.2332 6.62982 11.1429 6.85714 11.1429L15.0737 11.1429L12.2503 8.32114C12.0893 8.16019 11.9989 7.9419 11.9989 7.71428C11.9989 7.48667 12.0893 7.26838 12.2503 7.10743C12.4112 6.94648 12.6295 6.85606 12.8571 6.85606C13.0848 6.85606 13.3031 6.94648 13.464 7.10743ZM24 12C24 8.8174 22.7357 5.76516 20.4853 3.51472C18.2348 1.26428 15.1826 -7.70842e-07 12 -1.04907e-06C8.8174 -1.3273e-06 5.76516 1.26428 3.51472 3.51472C1.26428 5.76515 1.3273e-06 8.8174 1.04907e-06 12C7.70842e-07 15.1826 1.26428 18.2348 3.51472 20.4853C5.76516 22.7357 8.8174 24 12 24C15.1826 24 18.2348 22.7357 20.4853 20.4853C22.7357 18.2348 24 15.1826 24 12ZM12 1.71428C13.3507 1.71428 14.6883 1.98033 15.9362 2.49724C17.1841 3.01414 18.318 3.77179 19.2731 4.7269C20.2282 5.68202 20.9859 6.81591 21.5028 8.06383C22.0197 9.31175 22.2857 10.6493 22.2857 12C22.2857 13.3507 22.0197 14.6883 21.5028 15.9362C20.9859 17.1841 20.2282 18.318 19.2731 19.2731C18.318 20.2282 17.1841 20.9859 15.9362 21.5028C14.6883 22.0197 13.3507 22.2857 12 22.2857C9.27206 22.2857 6.65585 21.202 4.7269 19.2731C2.79796 17.3442 1.71429 14.7279 1.71429 12C1.71429 9.27206 2.79796 6.65585 4.7269 4.7269C6.65585 2.79795 9.27206 1.71428 12 1.71428Z" fill="#D2281A"/>
</svg>
