<svg width="22" height="20" viewBox="0 0 22 20" fill="none" xmlns="http://www.w3.org/2000/svg">
<path d="M10.3557 19.637C10.1137 19.3949 9.98696 19.0869 9.97552 18.7129C9.96408 18.3388 10.0798 18.0308 10.3227 17.7888L16.7914 11.3201H2.03889C1.66485 11.3201 1.3511 11.1934 1.09763 10.9399C0.844167 10.6865 0.717874 10.3732 0.718755 10C0.718755 9.62596 0.845487 9.31221 1.09895 9.05875C1.35242 8.80528 1.66573 8.67899 2.03889 8.67987H16.7914L10.3227 2.21122C10.0807 1.9692 9.96496 1.66117 9.97552 1.28713C9.98608 0.913091 10.1128 0.60506 10.3557 0.363036C10.5977 0.121012 10.9058 0 11.2798 0C11.6538 0 11.9619 0.121012 12.2039 0.363036L20.9168 9.07591C21.0488 9.18592 21.1425 9.32365 21.198 9.48911C21.2534 9.65456 21.2807 9.82486 21.2798 10C21.2798 10.176 21.2525 10.341 21.198 10.495C21.1434 10.6491 21.0497 10.7921 20.9168 10.9241L12.2039 19.637C11.9619 19.879 11.6538 20 11.2798 20C10.9058 20 10.5977 19.879 10.3557 19.637Z" fill="#D2281A"/>
</svg>
