<svg width="280" height="248" viewBox="0 0 280 248" fill="none" xmlns="http://www.w3.org/2000/svg">
<path opacity="0.34" d="M278.855 221.9C269.658 227.888 260.594 233.872 250.562 238.404C244.579 241.107 235.498 247.135 228.643 246.095C218.813 244.604 213.284 232.097 209.61 224.25C198.854 201.283 196.286 176.3 196.146 151.198C195.996 124.181 198.82 78.1622 226.14 62.6138C233.748 58.2844 239.848 62.4615 243.724 69.53C251.413 83.5559 247.751 102.439 243.711 116.914C232.101 158.52 204.37 198.916 170.859 226.035C168.415 228.014 157.435 238.23 153.556 234.241C143.345 223.741 142.921 199.219 141.902 186.176C139.138 150.8 140.015 114.799 144.337 79.5986C146.919 58.5719 149.953 35.2898 160.483 16.4227C168.888 1.36439 186.162 -6.34516 193.942 12.9235C200.027 27.9934 197.199 44.6119 193.276 59.8841C184.967 92.2307 168.959 120.868 148.19 146.758C132.382 166.463 114.494 185.95 92.2383 198.426C88.4077 200.574 80.0607 207.36 75.3029 204.587C71.0578 202.112 69.016 194.172 67.616 189.925C61.8701 172.495 63.8291 154.22 67.1461 136.542C72.6771 107.067 85.4511 73.9238 108.336 53.1635C115.648 46.5303 128.93 35.375 132.396 50.5946C133.995 57.6183 129.071 65.8055 125.036 71.0699C115.76 83.1719 105.397 94.5911 93.9496 104.655C79.4154 117.434 64.3097 129.6 46.4711 137.33C31.7367 143.715 17.5361 142.656 1.69821 142.59" stroke="#D2281A" stroke-width="1.8" stroke-linecap="round" stroke-linejoin="round"/>
</svg>
