<svg width="12" height="10" viewBox="0 0 12 10" fill="none" xmlns="http://www.w3.org/2000/svg">
<path d="M3.575 6.8874L9.475 0.987402C9.65833 0.804069 9.89167 0.712402 10.175 0.712402C10.4583 0.712402 10.6917 0.804069 10.875 0.987402C11.0583 1.17074 11.15 1.40407 11.15 1.6874C11.15 1.97074 11.0583 2.20407 10.875 2.3874L4.275 8.9874C4.075 9.1874 3.84167 9.2874 3.575 9.2874C3.30833 9.2874 3.075 9.1874 2.875 8.9874L0.275 6.3874C0.0916663 6.20407 0 5.97074 0 5.6874C0 5.40407 0.0916663 5.17074 0.275 4.9874C0.458333 4.80407 0.691667 4.7124 0.975 4.7124C1.25833 4.7124 1.49167 4.80407 1.675 4.9874L3.575 6.8874Z" fill="black"/>
</svg>
