<svg width="269" height="230" viewBox="0 0 269 230" fill="none" xmlns="http://www.w3.org/2000/svg">
<path opacity="0.34" d="M267.933 115.445C264.455 125.854 261.077 136.176 256.039 145.965C253.035 151.802 249.672 162.17 243.657 165.618C235.031 170.564 222.924 164.207 215.167 160.347C192.461 149.05 174.914 131.082 159.194 111.512C142.275 90.4473 115.869 52.6527 127.595 23.4867C130.861 15.3654 138.236 14.8429 145.666 17.9685C160.41 24.1704 169.285 41.2356 175.124 55.0836C191.905 94.886 195.309 143.766 185.931 185.843C185.247 188.912 183.002 203.741 177.483 203.03C162.957 201.156 147.376 182.217 138.467 172.636C114.303 146.651 92.6017 117.912 74.0961 87.6588C63.0419 69.587 50.9393 49.4677 47.4531 28.1438C44.6706 11.1247 53.4037 -5.65487 71.4793 4.59641C85.6161 12.6139 93.7358 27.387 100.161 41.7865C113.769 72.2849 119.043 104.666 118.878 137.857C118.752 163.118 116.862 189.503 107.192 213.114C105.528 217.178 103.211 227.683 97.7604 228.47C92.8971 229.172 86.3603 224.223 82.6229 221.768C67.2838 211.691 57.4532 196.162 49.0578 180.255C35.0592 153.733 24.4523 119.834 29.4637 89.3449C31.065 79.6031 34.5287 62.6079 46.7077 72.3712C52.3282 76.8769 53.563 86.3509 53.6769 92.9828C53.9388 108.228 52.9244 123.616 50.2187 138.616C46.7832 157.661 42.5193 176.583 33.3568 193.73C25.7888 207.893 14.0092 215.894 1.56484 225.691" stroke="#D2281A" stroke-width="1.8" stroke-linecap="round" stroke-linejoin="round"/>
</svg>
