<svg width="16" height="12" viewBox="0 0 16 12" fill="none" xmlns="http://www.w3.org/2000/svg">
<path d="M5.00292 8.6414L13.2595 0.384839C13.516 0.128279 13.8426 0 14.2391 0C14.6356 0 14.9621 0.128279 15.2187 0.384839C15.4752 0.641399 15.6035 0.967929 15.6035 1.36443C15.6035 1.76093 15.4752 2.08746 15.2187 2.34402L5.98251 11.5802C5.70262 11.8601 5.37609 12 5.00292 12C4.62974 12 4.30321 11.8601 4.02332 11.5802L0.384839 7.94169C0.128279 7.68513 0 7.3586 0 6.9621C0 6.5656 0.128279 6.23907 0.384839 5.98251C0.641399 5.72595 0.96793 5.59767 1.36443 5.59767C1.76093 5.59767 2.08746 5.72595 2.34402 5.98251L5.00292 8.6414Z" fill="#D2281A"/>
</svg>
