<svg width="241" height="241" viewBox="0 0 241 241" fill="none" xmlns="http://www.w3.org/2000/svg">
<path d="M239.925 63.9707C239.251 74.9245 238.652 85.7692 236.311 96.5261C234.915 102.941 234.342 113.825 229.421 118.709C222.363 125.713 209.026 122.697 200.535 120.97C175.683 115.915 154.093 103.085 133.855 88.2339C112.073 72.2497 76.8076 42.5504 80.6092 11.3462C81.6678 2.65736 88.6582 0.249147 96.6436 1.35113C112.489 3.53778 125.467 17.7345 134.682 29.6065C161.167 63.7296 177.071 110.075 178.87 153.147C179.001 156.289 180.659 171.195 175.143 171.932C160.626 173.871 140.685 159.594 129.605 152.637C99.5538 133.769 71.1705 111.604 45.4839 87.1515C30.1402 72.5448 13.2552 56.2305 4.38373 36.5288C-2.69681 20.8044 1.40997 2.33937 21.5189 7.57839C37.2459 11.6758 48.9032 23.8529 58.827 36.1064C79.8456 62.0594 93.2973 91.9828 101.704 124.092C108.102 148.53 113.085 174.509 109.836 199.815C109.277 204.171 109.75 214.918 104.687 217.085C100.17 219.018 92.5774 215.925 88.333 214.517C70.9129 208.74 57.4074 196.274 45.1914 183.073C24.8219 161.062 5.82578 131.049 2.79873 100.299C1.83154 90.4743 0.791755 73.161 15.0779 79.4503C21.6708 82.3528 25.3089 91.1872 27.1305 97.565C31.3182 112.227 34.3093 127.354 35.5665 142.545C37.1627 161.831 37.9265 181.212 33.4997 200.143C29.8433 215.78 20.5278 226.55 11.0335 239.227" stroke="white" stroke-width="1.8" stroke-linecap="round" stroke-linejoin="round"/>
</svg>
