<svg width="24" height="24" viewBox="0 0 24 24" fill="none" xmlns="http://www.w3.org/2000/svg">
<path d="M10.536 16.8926L6.25029 12.6069C6.17046 12.5272 6.10713 12.4326 6.06392 12.3285C6.02071 12.2244 5.99847 12.1127 5.99847 12C5.99847 11.8873 6.02071 11.7756 6.06392 11.6715C6.10713 11.5674 6.17046 11.4728 6.25029 11.3931L10.536 7.10743C10.6969 6.94648 10.9152 6.85606 11.1429 6.85606C11.3705 6.85606 11.5888 6.94648 11.7497 7.10743C11.9107 7.26838 12.0011 7.48667 12.0011 7.71429C12.0011 7.9419 11.9107 8.16019 11.7497 8.32114L8.92629 11.1429H17.1429C17.3702 11.1429 17.5882 11.2332 17.7489 11.3939C17.9097 11.5547 18 11.7727 18 12C18 12.2273 17.9097 12.4453 17.7489 12.6061C17.5882 12.7668 17.3702 12.8571 17.1429 12.8571H8.92629L11.7497 15.6789C11.9107 15.8398 12.0011 16.0581 12.0011 16.2857C12.0011 16.5133 11.9107 16.7316 11.7497 16.8926C11.5888 17.0535 11.3705 17.1439 11.1429 17.1439C10.9152 17.1439 10.6969 17.0535 10.536 16.8926ZM0 12C0 15.1826 1.26428 18.2348 3.51472 20.4853C5.76515 22.7357 8.8174 24 12 24C15.1826 24 18.2348 22.7357 20.4853 20.4853C22.7357 18.2348 24 15.1826 24 12C24 8.8174 22.7357 5.76515 20.4853 3.51472C18.2348 1.26428 15.1826 0 12 0C8.8174 0 5.76515 1.26428 3.51472 3.51472C1.26428 5.76515 0 8.8174 0 12ZM12 22.2857C10.6493 22.2857 9.31175 22.0197 8.06383 21.5028C6.81591 20.9859 5.68202 20.2282 4.7269 19.2731C3.77178 18.318 3.01414 17.1841 2.49724 15.9362C1.98033 14.6883 1.71429 13.3507 1.71429 12C1.71429 10.6493 1.98033 9.31175 2.49724 8.06383C3.01414 6.81591 3.77178 5.68202 4.7269 4.7269C5.68202 3.77178 6.81591 3.01414 8.06383 2.49724C9.31175 1.98033 10.6493 1.71429 12 1.71429C14.7279 1.71429 17.3442 2.79796 19.2731 4.7269C21.202 6.65585 22.2857 9.27206 22.2857 12C22.2857 14.7279 21.202 17.3442 19.2731 19.2731C17.3442 21.202 14.7279 22.2857 12 22.2857Z" fill="#C4C4C4"/>
</svg>
