<svg width="37" height="35" viewBox="0 0 37 35" fill="none" xmlns="http://www.w3.org/2000/svg">
<path d="M32.7177 20.7975C34.633 13.0063 29.6379 5.1926 21.5608 3.34509C13.4837 1.49758 5.38325 6.31591 3.46795 14.1071C1.55266 21.8983 6.54777 29.7121 14.6249 31.5596C22.702 33.4071 30.8024 28.5888 32.7177 20.7975Z" fill="#D2281A"/>
<path d="M10.543 17.8349C10.543 13.5814 12.7445 11.875 16.7216 11.8091L17.1574 13.8386C14.8518 14.0645 13.7169 15.1937 13.8827 17.0288H15.9542V22.1826H10.543V17.8349ZM19.024 17.8349C19.024 13.5814 21.2288 11.875 25.2027 11.8091L25.6352 13.8386C23.3296 14.0645 22.1946 15.1937 22.3637 17.0288H24.4352V22.1826H19.0305L19.024 17.8349Z" fill="white"/>
</svg>
